<svg width="24" height="24" viewBox="0 0 24 24" fill="none" xmlns="http://www.w3.org/2000/svg">
<g clip-path="url(#clip0_1536_700)">
<path d="M12 0.000244141C8.7435 0.000244141 8.334 0.0152441 7.0545 0.0722441C5.775 0.132244 4.9035 0.333244 4.14 0.630244C3.33914 0.931473 2.61374 1.40398 2.0145 2.01474C1.40411 2.61429 0.931661 3.3396 0.63 4.14024C0.333 4.90224 0.1305 5.77524 0.072 7.05024C0.015 8.33274 0 8.74074 0 12.0017C0 15.2597 0.015 15.6677 0.072 16.9472C0.132 18.2252 0.333 19.0967 0.63 19.8602C0.9375 20.6492 1.347 21.3182 2.0145 21.9857C2.6805 22.6532 3.3495 23.0642 4.1385 23.3702C4.9035 23.6672 5.7735 23.8697 7.0515 23.9282C8.3325 23.9852 8.7405 24.0002 12 24.0002C15.2595 24.0002 15.666 23.9852 16.947 23.9282C18.2235 23.8682 19.098 23.6672 19.8615 23.3702C20.6618 23.0689 21.3867 22.5964 21.9855 21.9857C22.653 21.3182 23.0625 20.6492 23.37 19.8602C23.6655 19.0967 23.868 18.2252 23.928 16.9472C23.985 15.6677 24 15.2597 24 12.0002C24 8.74074 23.985 8.33274 23.928 7.05174C23.868 5.77524 23.6655 4.90224 23.37 4.14024C23.0684 3.33958 22.5959 2.61426 21.9855 2.01474C21.3864 1.40376 20.661 0.931212 19.86 0.630244C19.095 0.333244 18.222 0.130744 16.9455 0.0722441C15.6645 0.0152441 15.258 0.000244141 11.997 0.000244141H12.0015H12ZM10.9245 2.16324H12.0015C15.2055 2.16324 15.585 2.17374 16.8495 2.23224C18.0195 2.28474 18.6555 2.48124 19.0785 2.64474C19.638 2.86224 20.0385 3.12324 20.4585 3.54324C20.8785 3.96324 21.138 4.36224 21.3555 4.92324C21.5205 5.34474 21.7155 5.98074 21.768 7.15074C21.8265 8.41524 21.8385 8.79474 21.8385 11.9972C21.8385 15.1997 21.8265 15.5807 21.768 16.8452C21.7155 18.0152 21.519 18.6497 21.3555 19.0727C21.1631 19.5938 20.856 20.0649 20.457 20.4512C20.037 20.8712 19.638 21.1307 19.077 21.3482C18.657 21.5132 18.021 21.7082 16.8495 21.7622C15.585 21.8192 15.2055 21.8327 12.0015 21.8327C8.7975 21.8327 8.4165 21.8192 7.152 21.7622C5.982 21.7082 5.3475 21.5132 4.9245 21.3482C4.40325 21.1561 3.93169 20.8496 3.5445 20.4512C3.14513 20.0643 2.83758 19.5927 2.6445 19.0712C2.481 18.6497 2.2845 18.0137 2.232 16.8437C2.175 15.5792 2.163 15.1997 2.163 11.9942C2.163 8.79024 2.175 8.41224 2.232 7.14774C2.286 5.97774 2.481 5.34174 2.646 4.91874C2.8635 4.35924 3.1245 3.95874 3.5445 3.53874C3.9645 3.11874 4.3635 2.85924 4.9245 2.64174C5.3475 2.47674 5.982 2.28174 7.152 2.22774C8.259 2.17674 8.688 2.16174 10.9245 2.16024V2.16324ZM18.4065 4.15524C18.2174 4.15524 18.0301 4.19249 17.8554 4.26486C17.6807 4.33722 17.522 4.44329 17.3883 4.57701C17.2545 4.71073 17.1485 4.86947 17.0761 5.04418C17.0037 5.21889 16.9665 5.40614 16.9665 5.59524C16.9665 5.78435 17.0037 5.9716 17.0761 6.14631C17.1485 6.32102 17.2545 6.47976 17.3883 6.61348C17.522 6.74719 17.6807 6.85326 17.8554 6.92563C18.0301 6.998 18.2174 7.03524 18.4065 7.03524C18.7884 7.03524 19.1547 6.88353 19.4247 6.61348C19.6948 6.34343 19.8465 5.97716 19.8465 5.59524C19.8465 5.21333 19.6948 4.84706 19.4247 4.57701C19.1547 4.30696 18.7884 4.15524 18.4065 4.15524ZM12.0015 5.83824C11.1841 5.82549 10.3723 5.97547 9.61347 6.27946C8.85459 6.58344 8.16377 7.03535 7.58123 7.60888C6.99868 8.18241 6.53605 8.86609 6.22026 9.62013C5.90448 10.3742 5.74185 11.1835 5.74185 12.001C5.74185 12.8185 5.90448 13.6278 6.22026 14.3819C6.53605 15.1359 6.99868 15.8196 7.58123 16.3931C8.16377 16.9666 8.85459 17.4185 9.61347 17.7225C10.3723 18.0265 11.1841 18.1765 12.0015 18.1637C13.6193 18.1385 15.1623 17.4781 16.2975 16.3251C17.4326 15.1721 18.0689 13.619 18.0689 12.001C18.0689 10.383 17.4326 8.82986 16.2975 7.67687C15.1623 6.52387 13.6193 5.86348 12.0015 5.83824ZM12.0015 7.99974C13.0625 7.99974 14.08 8.42122 14.8303 9.17146C15.5805 9.9217 16.002 10.9392 16.002 12.0002C16.002 13.0612 15.5805 14.0788 14.8303 14.829C14.08 15.5793 13.0625 16.0007 12.0015 16.0007C10.9405 16.0007 9.92296 15.5793 9.17272 14.829C8.42248 14.0788 8.001 13.0612 8.001 12.0002C8.001 10.9392 8.42248 9.9217 9.17272 9.17146C9.92296 8.42122 10.9405 7.99974 12.0015 7.99974Z" fill="#AFE67F"/>
</g>
<defs>
<clipPath id="clip0_1536_700">
<rect width="24" height="24" fill="white" transform="translate(0 0.000244141)"/>
</clipPath>
</defs>
</svg>
