<svg width="24" height="24" viewBox="0 0 24 24" fill="none" xmlns="http://www.w3.org/2000/svg">
<path d="M14.1907 7.89721L14.0641 8.5H14.68H21C21.3978 8.5 21.7794 8.65804 22.0607 8.93934C22.342 9.22064 22.5 9.60218 22.5 10V12C22.5 12.1905 22.4644 12.3667 22.3971 12.5409L19.3804 19.5831L19.3804 19.5831L19.3785 19.5877C19.1544 20.1254 18.6238 20.5 18 20.5H9C8.60218 20.5 8.22064 20.342 7.93934 20.0607C7.65804 19.7794 7.5 19.3978 7.5 19V9C7.5 8.58728 7.66397 8.21314 7.94355 7.93355L14.1717 1.70544L14.8764 2.40355C14.8767 2.40381 14.877 2.40406 14.8772 2.40431C15.0571 2.58462 15.17 2.8387 15.17 3.11C15.17 3.19028 15.1627 3.26633 15.1501 3.32984L14.1907 7.89721ZM4.5 9.5V20.5H1.5V9.5H4.5Z" stroke="#1D3208"/>
</svg>
