<svg width="40" height="40" viewBox="0 0 40 40" fill="none" xmlns="http://www.w3.org/2000/svg">
<circle cx="20" cy="20" r="19.5" stroke="#121212"/>
<path d="M22.1907 15.8972L22.0641 16.5H22.68H29C29.3978 16.5 29.7794 16.658 30.0607 16.9393C30.342 17.2206 30.5 17.6022 30.5 18V20C30.5 20.1905 30.4644 20.3667 30.3971 20.5409L27.3804 27.5831L27.3804 27.5831L27.3785 27.5877C27.1544 28.1254 26.6238 28.5 26 28.5H17C16.6022 28.5 16.2206 28.342 15.9393 28.0607C15.658 27.7794 15.5 27.3978 15.5 27V17C15.5 16.5873 15.664 16.2131 15.9436 15.9336L22.1717 9.70544L22.8764 10.4036C22.8767 10.4038 22.877 10.4041 22.8772 10.4043C23.0571 10.5846 23.17 10.8387 23.17 11.11C23.17 11.1903 23.1627 11.2663 23.1501 11.3298L22.1907 15.8972ZM12.5 17.5V28.5H9.5V17.5H12.5Z" stroke="#1D3208"/>
</svg>
