<svg width="24" height="24" viewBox="0 0 24 24" fill="none" xmlns="http://www.w3.org/2000/svg">
<path d="M21.3333 0.000244141C22.0406 0.000244141 22.7189 0.281196 23.219 0.781293C23.719 1.28139 24 1.95967 24 2.66691V21.3336C24 22.0408 23.719 22.7191 23.219 23.2192C22.7189 23.7193 22.0406 24.0002 21.3333 24.0002H2.66667C1.95942 24.0002 1.28115 23.7193 0.781048 23.2192C0.280951 22.7191 0 22.0408 0 21.3336V2.66691C0 1.95967 0.280951 1.28139 0.781048 0.781293C1.28115 0.281196 1.95942 0.000244141 2.66667 0.000244141H21.3333ZM20.6667 20.6669V13.6002C20.6667 12.4474 20.2087 11.3418 19.3936 10.5267C18.5784 9.71153 17.4728 9.25358 16.32 9.25358C15.1867 9.25358 13.8667 9.94691 13.2267 10.9869V9.50691H9.50667V20.6669H13.2267V14.0936C13.2267 13.0669 14.0533 12.2269 15.08 12.2269C15.5751 12.2269 16.0499 12.4236 16.3999 12.7736C16.75 13.1237 16.9467 13.5985 16.9467 14.0936V20.6669H20.6667ZM5.17333 7.41358C5.76742 7.41358 6.33717 7.17758 6.75725 6.7575C7.17733 6.33742 7.41333 5.76766 7.41333 5.17358C7.41333 3.93358 6.41333 2.92024 5.17333 2.92024C4.57571 2.92024 4.00257 3.15765 3.57999 3.58023C3.1574 4.00281 2.92 4.57596 2.92 5.17358C2.92 6.41358 3.93333 7.41358 5.17333 7.41358ZM7.02667 20.6669V9.50691H3.33333V20.6669H7.02667Z" fill="#AFE67F"/>
</svg>
